# xmcd
#
# Track frame offsets: 
#        150
#        19862
#        43870
#        68017
#        88825
#        115930
#        134495
#
# Disc length: 2379 seconds
#
# Revision: 2
# Processed by: cddbd v1.5PL3 Copyright (c) Steve Scherf et al.
# Submitted via: ExactAudioCopy v0.95a3
#
DISCID=5f094907
DTITLE=Muddy Waters - Muddy "Mississippi" Waters Live
DYEAR=1979
DGENRE=Blues
TTITLE0=Mannish Boy
TTITLE1=She's Nineteen Years Old
TTITLE2=Nine Below Zero
TTITLE3=Streamline Woman
TTITLE4=Howling Wolf
TTITLE5=Baby Please Don't Go
TTITLE6=Deep Down In Florida
EXTD=
EXTT0=
EXTT1=
EXTT2=
EXTT3=
EXTT4=
EXTT5=
EXTT6=
PLAYORDER=
